<?xml version="1.0" encoding="UTF-8" standalone="no"?>
<!-- Created with Inkscape (http://www.inkscape.org/) -->

<svg
   width="159.70285mm"
   height="159.70285mm"
   viewBox="0 0 159.70285 159.70285"
   version="1.1"
   id="svg1"
   xml:space="preserve"
   xmlns="http://www.w3.org/2000/svg"
   xmlns:svg="http://www.w3.org/2000/svg"><defs
     id="defs1" /><g
     id="layer1"
     transform="translate(1087.9666,1130.5645)"><rect
       style="opacity:0;fill:#000000;fill-opacity:1;stroke:none;stroke-width:4.13684;stroke-linejoin:round;stroke-dasharray:none;stroke-opacity:1;paint-order:stroke fill markers"
       id="rect3-9-9-9"
       width="159.70284"
       height="159.70284"
       x="-1087.9667"
       y="-1130.5646"
       rx="0"
       ry="0" /><rect
       style="fill:#494949;fill-opacity:1;stroke:#7f7f7f;stroke-width:5;stroke-linejoin:round;stroke-dasharray:none;stroke-opacity:1;paint-order:stroke fill markers"
       id="rect2-3-7-2-6-7-0-9"
       width="73.130646"
       height="90.045227"
       x="-1034.6807"
       y="-1085.7357"
       ry="5.7137623" /><rect
       style="fill:#494949;fill-opacity:1;stroke:#7f7f7f;stroke-width:5;stroke-linejoin:round;stroke-dasharray:none;stroke-opacity:1;paint-order:stroke fill markers"
       id="rect2-3-9-1-7-8-6"
       width="73.130646"
       height="90.045227"
       x="-1044.6807"
       y="-1095.7357"
       ry="5.7137623" /><rect
       style="fill:#7c7c7c;fill-opacity:1;stroke:#ffffff;stroke-width:7;stroke-linejoin:round;stroke-dasharray:none;stroke-opacity:1;paint-order:stroke fill markers"
       id="rect2-1-0-1-1-9"
       width="73.130646"
       height="90.045227"
       x="-1054.6807"
       y="-1105.7357"
       ry="8.9677" /><g
       id="g3-6-1-3-3"
       transform="matrix(0.82427812,0,0,0.82427812,-421.56183,-927.59367)"><path
         style="fill:#ffffff;fill-opacity:1;stroke-width:2.64583;stroke-linejoin:round;paint-order:stroke fill markers"
         d="m -731.2901,-135.10121 c -15.94585,-8.03792 -23.53353,-29.40437 -12.53503,-40.40469 -1.22576,13.44817 6.62295,23.31423 6.62295,23.31423 0,0 0,0 2.18092,-2.09298 -2.94266,-5.02508 -6.3524,-23.03239 5.56289,-30.392 -3.91465,16.03354 1.7688,26.79405 1.7688,26.79405 l 2.26628,-1.52263 c 0,0 -5.12534,-19.15153 9.2212,-28.49 -6.29498,23.57586 1.94468,35.54276 1.94468,35.54276 0,0 -20.08279,3.30314 -17.03269,17.25126 z"
         id="path1-6-9-1-5-1-3" /><path
         style="fill:#ffffff;fill-opacity:1;stroke-width:2.64583;stroke-linejoin:round;paint-order:stroke fill markers"
         d="m -707.00798,-178.73823 c 0,0 2.68069,7.66384 -4.30926,17.58883 9.50822,12.28989 -10.65184,14.82456 -13.80724,20.05128 0.18142,1.36194 0.31981,3.23262 2.11066,4.5731 35.84432,-5.18377 24.22181,-33.60616 16.00584,-42.21321 z"
         id="path2-2-4-5-9-1-8" /></g></g></svg>
